<?xml version="1.0" encoding="utf-8"?>
<!-- Generator: Adobe Illustrator 24.1.1, SVG Export Plug-In . SVG Version: 6.00 Build 0)  -->
<svg version="1.1" id="Capa_1" xmlns="http://www.w3.org/2000/svg" xmlns:xlink="http://www.w3.org/1999/xlink" x="0px" y="0px"
	 viewBox="0 0 600 140" style="enable-background:new 0 0 600 140;" xml:space="preserve">
<style type="text/css">
	.st0{fill:#333E6E;}
</style>
<g>
	<g>
		<path class="st0" d="M392.05,17.44c-6.55-3.98-11.4-6.39-22.09-6.85c0,0-23.33,0.15-25.52,0.41c-2.25,0.3-3.33,0.95-3.33,1.92
			c0,0.21,0.11,0.66,0.6,1.19l3.77,3.52v64.04c0,0-0.25,45.39-2.25,47.38h20.61c0,0-4.69-5.45-5.07-14.74
			c-0.32-7.07-0.15-22.44-0.05-29.38c0.01-0.92,0.36-1.8,1-2.46c1.94-2,5.86-3.54,9.78-6c11.24-6.91,17.7-12.48,20.8-15.91
			c7.04-7.8,11.86-16.26,11.68-25.55C401.87,28.48,398.79,22.05,392.05,17.44 M380.56,57.43c-7.6,6.96-14.31,10.45-20.17,10.45
			c-3.01,0-4.72-1.37-4.72-4.16c0,0,0-41.39,0-43.05c0-1.7,2.44-1.21,7-1.21c7.22,0,13.55,1,19.09,3.02
			c7.51,2.8,11.24,7.47,11.24,12.11C393,42.32,388.85,49.94,380.56,57.43"/>
		<path class="st0" d="M256.03,75.08v-9.27c-0.05-1.74,0.05-2.84,0.98-3.32c0.91-0.48,3.01-0.74,6.32-0.74h24.7
			c3.7,0,6.74,1.29,9.12,3.82c2.34,2.55,3.51,5.37,3.51,8.49v44.97c0,0.99,0.51,2.2,1.52,3.74c2.28,3.45,3.45,5.27,3.45,5.49
			c0,0.64-0.57,1.03-1.74,1.12h-28.75c-9.15,0-16.26-1.95-21.26-5.81c-4-3.13-6.02-6.7-6.02-10.7c0-8.07,7.14-14.99,21.35-20.81
			c14.22-5.73,21.41-10.61,21.41-14.61c0-1.84,1.3-6.29-9.02-6.8h-16.33C259.76,70.95,256.03,75.08,256.03,75.08 M258.39,112.9
			c0,3.14,2.28,5.5,6.88,7.12c3.72,1.31,8.36,1.93,13.94,1.93c3.43,0,6.18-0.16,8.27-0.57c2.09-0.36,3.13-1.16,3.13-1.16V95.18
			c0,0-9.82,1.08-16.13,3.39C263.59,102.57,258.39,107.76,258.39,112.9"/>
		<path class="st0" d="M12.37,129.24c-0.78-0.01-1.4-0.69-1.3-1.47c0.25-2.09,1.05-4.13,2.41-6.14c0.7-1.04,1.01-2.18,1.01-3.37
			V37.28c0-1.16-0.82-2.79-2.47-4.84c-1.59-1.96-2.24-3.55-1.96-4.84c0.03-0.14,0.08-0.28,0.17-0.39c0.35-0.44,1.11-0.67,2.2-0.67
			c0.7,0,4.08,0.48,10.16,1.49c2.64,0.45,4.73,0.69,6.24,0.69c13.17,0,24.07,2.18,32.81,6.55c9.72,4.82,14.56,11.5,14.56,20.02
			c0,5.69-2.45,10.6-7.33,14.7c-1.49,1.3-3.83,2.75-7.03,4.27c5.27,2.71,9.21,5.15,11.87,7.29c7.87,6.59,11.81,14.17,11.81,22.68
			c0,9.08-4.84,15.64-14.53,19.66c-8.87,3.69-22.89,5.49-41.95,5.49L12.37,129.24z M58.97,116.47c8.56-2.26,12.83-6.44,12.83-12.59
			c0-8.73-4.42-15.24-13.28-19.63c-6.51-3.18-13.96-4.78-22.43-4.78c-3.61,0-5.95,0.31-7.05,0.9V67.15l0,0
			c0.84,1.41,3.93,2.34,5.59,2.89c1.68,0.53,3.56,0.8,5.62,0.8c5.93,0,11.29-1.42,16.08-4.29c4.8-2.82,7.17-6.54,7.17-11.13
			c0-5.4-3.61-9.7-10.78-12.83c-7.2-3.1-15.3-4.68-24.31-4.68c-2.22,0-3.31,0.52-3.31,1.58v76.28c0,1.31,0.68,2.13,2.17,2.49
			c1.46,0.36,3.44,0.52,5.92,0.52C44.57,118.76,53.11,117.99,58.97,116.47"/>
		<path class="st0" d="M162.72,85.73c0.13,0.22-49.62,24.9-49.62,25.12c0.3,1.82,2.09,3.58,5.35,5.31c3.2,1.73,7.3,2.56,12.22,2.56
			c6.33,0,11.33-1.25,15.04-3.77c3.67-2.55,5.98-6.6,7.03-12.19c0.17-0.87,0.55-1.28,1.33-1.28c1.3,0,8.53,6.65,9.72,8.05
			c1.16,1.52-1.46,4.95-7.78,10.32c-7.36,6.35-15.83,9.53-25.33,9.53c-9.96,0-17.76-2.3-23.43-6.89c-6.49-5.3-9.75-13.47-9.75-24.5
			c0-10.97,2.63-19.58,7.8-25.77c5.76-6.98,14.23-10.47,25.37-10.47c7.8,0,14.91,2.63,21.4,7.88
			C158.02,74.47,161.58,79.84,162.72,85.73 M131.08,70.95c-8.22,0-14.51,2.78-18.84,8.37c-3.34,4.41-5,9.53-5,15.42
			c0,3.53,0.54,6.06,1.54,7.53c0.57,0.97,1.31,1.23,2.17,0.81l38.1-18.8c1.46-0.74,1.44-3.34-2.85-7.41
			C141.83,72.8,135.84,70.95,131.08,70.95"/>
		<path class="st0" d="M190.63,118.46c0,1.16,0.66,2.59,2.02,4.27c1.4,1.73,2.05,3.95,2.05,6.56h-18.85c0-2.83,0.67-5.02,1.88-6.78
			c1.25-1.77,1.82-3.11,1.82-4.05V41.78c0-0.7-3.7-3.95-3.7-4.41c0-1.48,9.22-7.16,13.18-9.19c0.74-0.38,1.61,0.15,1.61,0.98
			L190.63,118.46z"/>
		<path class="st0" d="M227.29,118.5c0,1.16,0.66,2.59,2.02,4.27c1.4,1.73,2.05,3.91,2.05,6.52H212.5c0-2.83,0.67-4.99,1.88-6.74
			c1.25-1.77,1.82-3.11,1.82-4.05V41.82c0-0.7-3.7-3.95-3.7-4.41c0-1.48,9.22-7.16,13.18-9.19c0.74-0.38,1.61,0.15,1.61,0.98
			L227.29,118.5z"/>
		<path class="st0" d="M546.85,118.59c0,1.16,0.66,2.59,2.02,4.27c1.4,1.73,2.05,3.82,2.05,6.43h-18.85c0-2.83,0.66-4.9,1.88-6.65
			c1.25-1.77,1.82-3.11,1.82-4.05V41.9c0-0.7-3.7-3.95-3.7-4.41c0-1.48,9.22-7.16,13.18-9.19c0.74-0.38,1.61,0.15,1.61,0.98v89.31
			H546.85z"/>
		<path class="st0" d="M577.62,10.58c2.02,0,4.11,0.51,6.11,1.58c1.96,1.1,3.48,2.59,4.59,4.57c1.14,1.97,1.68,4.05,1.68,6.18
			c0,2.15-0.54,4.22-1.68,6.17c-1.01,1.93-2.56,3.5-4.53,4.54c-1.96,1.15-4.05,1.64-6.17,1.64c-2.18,0-4.21-0.49-6.21-1.64
			c-1.93-1.04-3.48-2.61-4.52-4.54c-1.14-1.95-1.68-4.02-1.68-6.17c0-2.13,0.57-4.21,1.68-6.18c1.11-1.99,2.66-3.47,4.62-4.57
			C573.51,11.1,575.57,10.58,577.62,10.58 M577.62,12.63c-1.77,0-3.45,0.42-5.06,1.34c-1.68,0.9-2.98,2.18-3.93,3.8
			c-0.92,1.68-1.36,3.39-1.36,5.15c0,1.79,0.44,3.5,1.36,5.11c0.95,1.65,2.19,2.92,3.83,3.85c1.68,0.91,3.36,1.38,5.16,1.38
			c1.77,0,3.48-0.47,5.16-1.38c1.55-0.93,2.88-2.19,3.8-3.85c0.92-1.62,1.36-3.32,1.36-5.11c0-1.76-0.44-3.47-1.36-5.15
			c-0.95-1.62-2.24-2.91-3.92-3.8C581.04,13.06,579.36,12.63,577.62,12.63 M572.18,29.75V16.5h4.56c1.61,0,2.69,0.09,3.42,0.34
			c0.73,0.24,1.3,0.65,1.68,1.27c0.41,0.63,0.63,1.28,0.63,1.94c0,1.01-0.38,1.82-1.01,2.55c-0.73,0.73-1.65,1.15-2.82,1.23
			c0.47,0.21,0.82,0.43,1.17,0.74c0.47,0.47,1.17,1.38,1.93,2.6l1.65,2.59h-2.66l-1.17-2.08c-0.92-1.66-1.65-2.67-2.25-3.1
			c-0.38-0.29-0.98-0.46-1.71-0.46h-1.26v5.64h-2.16V29.75z M574.33,22.29h2.59c1.3,0,2.12-0.19,2.53-0.55
			c0.5-0.36,0.73-0.85,0.73-1.49c0-0.41-0.13-0.74-0.35-1.04s-0.5-0.55-0.91-0.68c-0.38-0.17-1.11-0.24-2.15-0.24h-2.43v4H574.33z"
			/>
		<path class="st0" d="M514.54,85.73c0.13,0.22-49.62,24.9-49.62,25.12c0.3,1.82,2.09,3.58,5.35,5.31c3.2,1.73,7.3,2.56,12.22,2.56
			c6.33,0,11.33-1.25,15.04-3.77c3.67-2.55,5.98-6.6,7.03-12.19c0.17-0.87,0.55-1.28,1.33-1.28c1.3,0,8.53,6.65,9.72,8.05
			c1.16,1.52-1.46,4.95-7.78,10.32c-7.36,6.35-15.83,9.53-25.33,9.53c-9.96,0-17.76-2.3-23.43-6.89c-6.49-5.3-9.75-13.47-9.75-24.5
			c0-10.97,2.63-19.58,7.8-25.77c5.76-6.98,14.23-10.47,25.37-10.47c7.8,0,14.91,2.63,21.4,7.88
			C509.84,74.47,513.41,79.84,514.54,85.73 M482.9,70.95c-8.22,0-14.51,2.78-18.84,8.37c-3.34,4.41-5,9.53-5,15.42
			c0,3.53,0.54,6.06,1.54,7.53c0.57,0.97,1.31,1.23,2.17,0.81l38.1-18.8c1.46-0.74,1.44-3.34-2.85-7.41
			C493.65,72.8,487.67,70.95,482.9,70.95"/>
		<g>
			<ellipse class="st0" cx="423.82" cy="42.07" rx="8.85" ry="7.82"/>
			<path class="st0" d="M415.78,61.76c0,2.05,0.88,4.84,1.87,6.16c1.2,1.61,1.8,3.97,1.8,3.97l0.03,47.63c0,0.96-0.6,2.24-1.87,3.79
				c-1.2,1.54-1.83,3.64-1.83,6.1h8.38l0,0l0,0l0,0l0,0h8.58c0-2.46-0.69-4.56-1.89-6.1c-1.27-1.56-2.01-2.83-2.01-3.79l0.21-47.63
				c0,0,0.53-2.36,1.73-3.97c0.99-1.32,1.95-4.11,1.95-6.16"/>
		</g>
	</g>
</g>
</svg>
